<mxfile host="app.diagrams.net" agent="Mozilla/5.0 (X11; Linux x86_64; rv:121.0) Gecko/20100101 Firefox/121.0" version="24.7.17">
  <diagram name="Page-1" id="9uuTMXfaQPbUBSlBJKwn">
    <mxGraphModel dx="1416" dy="1729" grid="1" gridSize="10" guides="1" tooltips="1" connect="1" arrows="1" fold="1" page="1" pageScale="1" pageWidth="850" pageHeight="1100" math="0" shadow="0">
      <root>
        <mxCell id="0" />
        <mxCell id="1" parent="0" />
        <mxCell id="I01GNPKx7OFhs-Z_X_bF-1" value="Personagem" style="swimlane;fontStyle=1;align=center;verticalAlign=top;childLayout=stackLayout;horizontal=1;startSize=26;horizontalStack=0;resizeParent=1;resizeParentMax=0;resizeLast=0;collapsible=1;marginBottom=0;whiteSpace=wrap;html=1;" vertex="1" parent="1">
          <mxGeometry x="380" y="220" width="240" height="230" as="geometry" />
        </mxCell>
        <mxCell id="I01GNPKx7OFhs-Z_X_bF-2" value="- personagem: str&lt;div&gt;- classe: str&lt;br&gt;&lt;div&gt;- hp: float&lt;/div&gt;&lt;div&gt;- item: str&lt;/div&gt;&lt;/div&gt;" style="text;strokeColor=none;fillColor=none;align=left;verticalAlign=top;spacingLeft=4;spacingRight=4;overflow=hidden;rotatable=0;points=[[0,0.5],[1,0.5]];portConstraint=eastwest;whiteSpace=wrap;html=1;" vertex="1" parent="I01GNPKx7OFhs-Z_X_bF-1">
          <mxGeometry y="26" width="240" height="64" as="geometry" />
        </mxCell>
        <mxCell id="I01GNPKx7OFhs-Z_X_bF-3" value="" style="line;strokeWidth=1;fillColor=none;align=left;verticalAlign=middle;spacingTop=-1;spacingLeft=3;spacingRight=3;rotatable=0;labelPosition=right;points=[];portConstraint=eastwest;strokeColor=inherit;" vertex="1" parent="I01GNPKx7OFhs-Z_X_bF-1">
          <mxGeometry y="90" width="240" height="8" as="geometry" />
        </mxCell>
        <mxCell id="I01GNPKx7OFhs-Z_X_bF-4" value="+ personagem(): str&lt;div&gt;+ personagem(str)&lt;/div&gt;&lt;div&gt;+ classe(): str&lt;div&gt;+ classe(str)&lt;/div&gt;&lt;/div&gt;&lt;div&gt;+                       hp(): float&lt;div&gt;+             hp(float)&lt;/div&gt;&lt;/div&gt;&lt;div&gt;+     item(): str&lt;div&gt;+   item(str)&lt;/div&gt;&lt;/div&gt;" style="text;strokeColor=none;fillColor=none;align=left;verticalAlign=top;spacingLeft=4;spacingRight=4;overflow=hidden;rotatable=0;points=[[0,0.5],[1,0.5]];portConstraint=eastwest;whiteSpace=wrap;html=1;" vertex="1" parent="I01GNPKx7OFhs-Z_X_bF-1">
          <mxGeometry y="98" width="240" height="132" as="geometry" />
        </mxCell>
        <mxCell id="I01GNPKx7OFhs-Z_X_bF-5" value="Jogador" style="swimlane;fontStyle=1;align=center;verticalAlign=top;childLayout=stackLayout;horizontal=1;startSize=26;horizontalStack=0;resizeParent=1;resizeParentMax=0;resizeLast=0;collapsible=1;marginBottom=0;whiteSpace=wrap;html=1;" vertex="1" parent="1">
          <mxGeometry x="1290" y="170" width="160" height="270" as="geometry" />
        </mxCell>
        <mxCell id="I01GNPKx7OFhs-Z_X_bF-6" value="- nome: str&lt;div&gt;- batalhas: []&lt;/div&gt;&lt;div&gt;- vitorias: int&lt;/div&gt;&lt;div&gt;- parties: []&lt;/div&gt;" style="text;strokeColor=none;fillColor=none;align=left;verticalAlign=top;spacingLeft=4;spacingRight=4;overflow=hidden;rotatable=0;points=[[0,0.5],[1,0.5]];portConstraint=eastwest;whiteSpace=wrap;html=1;" vertex="1" parent="I01GNPKx7OFhs-Z_X_bF-5">
          <mxGeometry y="26" width="160" height="74" as="geometry" />
        </mxCell>
        <mxCell id="I01GNPKx7OFhs-Z_X_bF-7" value="" style="line;strokeWidth=1;fillColor=none;align=left;verticalAlign=middle;spacingTop=-1;spacingLeft=3;spacingRight=3;rotatable=0;labelPosition=right;points=[];portConstraint=eastwest;strokeColor=inherit;" vertex="1" parent="I01GNPKx7OFhs-Z_X_bF-5">
          <mxGeometry y="100" width="160" height="8" as="geometry" />
        </mxCell>
        <mxCell id="I01GNPKx7OFhs-Z_X_bF-8" value="&lt;div&gt;+ &amp;lt;&amp;lt;create&amp;gt;&amp;gt;&lt;/div&gt;&lt;div&gt;&lt;span style=&quot;background-color: initial;&quot;&gt;__init__(nome)&lt;/span&gt;&lt;/div&gt;&lt;div&gt;+ nome(): str&lt;/div&gt;&lt;div&gt;+ nome(str)&lt;/div&gt;&lt;div&gt;+ vitorias(): int&lt;/div&gt;" style="text;strokeColor=none;fillColor=none;align=left;verticalAlign=top;spacingLeft=4;spacingRight=4;overflow=hidden;rotatable=0;points=[[0,0.5],[1,0.5]];portConstraint=eastwest;whiteSpace=wrap;html=1;" vertex="1" parent="I01GNPKx7OFhs-Z_X_bF-5">
          <mxGeometry y="108" width="160" height="162" as="geometry" />
        </mxCell>
        <mxCell id="I01GNPKx7OFhs-Z_X_bF-9" value="party" style="swimlane;fontStyle=1;align=center;verticalAlign=top;childLayout=stackLayout;horizontal=1;startSize=26;horizontalStack=0;resizeParent=1;resizeParentMax=0;resizeLast=0;collapsible=1;marginBottom=0;whiteSpace=wrap;html=1;" vertex="1" parent="1">
          <mxGeometry x="860" y="190" width="210" height="270" as="geometry" />
        </mxCell>
        <mxCell id="I01GNPKx7OFhs-Z_X_bF-10" value="- nome: str&lt;div&gt;- personagens: []&lt;/div&gt;" style="text;strokeColor=none;fillColor=none;align=left;verticalAlign=top;spacingLeft=4;spacingRight=4;overflow=hidden;rotatable=0;points=[[0,0.5],[1,0.5]];portConstraint=eastwest;whiteSpace=wrap;html=1;" vertex="1" parent="I01GNPKx7OFhs-Z_X_bF-9">
          <mxGeometry y="26" width="210" height="64" as="geometry" />
        </mxCell>
        <mxCell id="I01GNPKx7OFhs-Z_X_bF-11" value="" style="line;strokeWidth=1;fillColor=none;align=left;verticalAlign=middle;spacingTop=-1;spacingLeft=3;spacingRight=3;rotatable=0;labelPosition=right;points=[];portConstraint=eastwest;strokeColor=inherit;" vertex="1" parent="I01GNPKx7OFhs-Z_X_bF-9">
          <mxGeometry y="90" width="210" height="8" as="geometry" />
        </mxCell>
        <mxCell id="I01GNPKx7OFhs-Z_X_bF-12" value="&lt;div&gt;+ &amp;lt;&amp;lt;create&amp;gt;&amp;gt;&lt;/div&gt;&lt;div&gt;&lt;span style=&quot;background-color: initial;&quot;&gt;__init__(nome, char1, char2, char3, char4)&lt;/span&gt;&lt;/div&gt;&lt;div&gt;+ nome(): str&lt;/div&gt;&lt;div&gt;+ nome(str)&lt;/div&gt;&lt;div&gt;+ personagens(): []&lt;/div&gt;&lt;div&gt;+ personagens([])&lt;/div&gt;&lt;div&gt;+ add_personagem(Personagem)&lt;/div&gt;&lt;div&gt;+ remove_personagem(Personagem)&lt;/div&gt;" style="text;strokeColor=none;fillColor=none;align=left;verticalAlign=top;spacingLeft=4;spacingRight=4;overflow=hidden;rotatable=0;points=[[0,0.5],[1,0.5]];portConstraint=eastwest;whiteSpace=wrap;html=1;" vertex="1" parent="I01GNPKx7OFhs-Z_X_bF-9">
          <mxGeometry y="98" width="210" height="172" as="geometry" />
        </mxCell>
        <mxCell id="I01GNPKx7OFhs-Z_X_bF-13" value="batalha" style="swimlane;fontStyle=1;align=center;verticalAlign=top;childLayout=stackLayout;horizontal=1;startSize=26;horizontalStack=0;resizeParent=1;resizeParentMax=0;resizeLast=0;collapsible=1;marginBottom=0;whiteSpace=wrap;html=1;" vertex="1" parent="1">
          <mxGeometry x="1560" y="-240" width="200" height="320" as="geometry" />
        </mxCell>
        <mxCell id="I01GNPKx7OFhs-Z_X_bF-14" value="- jogador_1: Jogador&lt;div&gt;- jogador_2: Jogador&lt;/div&gt;&lt;div&gt;- party_1: int&lt;/div&gt;&lt;div&gt;- party_2: int&lt;/div&gt;&lt;div&gt;- vencedor: Jogador&lt;/div&gt;&lt;div&gt;&lt;br&gt;&lt;div&gt;&lt;br&gt;&lt;/div&gt;&lt;/div&gt;" style="text;strokeColor=none;fillColor=none;align=left;verticalAlign=top;spacingLeft=4;spacingRight=4;overflow=hidden;rotatable=0;points=[[0,0.5],[1,0.5]];portConstraint=eastwest;whiteSpace=wrap;html=1;" vertex="1" parent="I01GNPKx7OFhs-Z_X_bF-13">
          <mxGeometry y="26" width="200" height="84" as="geometry" />
        </mxCell>
        <mxCell id="I01GNPKx7OFhs-Z_X_bF-15" value="" style="line;strokeWidth=1;fillColor=none;align=left;verticalAlign=middle;spacingTop=-1;spacingLeft=3;spacingRight=3;rotatable=0;labelPosition=right;points=[];portConstraint=eastwest;strokeColor=inherit;" vertex="1" parent="I01GNPKx7OFhs-Z_X_bF-13">
          <mxGeometry y="110" width="200" height="8" as="geometry" />
        </mxCell>
        <mxCell id="I01GNPKx7OFhs-Z_X_bF-16" value="&lt;div&gt;+ &amp;lt;&amp;lt;create&amp;gt;&amp;gt;&lt;/div&gt;&lt;div&gt;&lt;span style=&quot;background-color: initial;&quot;&gt;__init__(jogador_1, jogador_2, party_1, party_2, vencedor)&lt;/span&gt;&lt;/div&gt;&lt;div&gt;&lt;span style=&quot;background-color: initial;&quot;&gt;+ jogador_1(): Jogador&lt;/span&gt;&lt;/div&gt;+ jogador_1(Jogador)&lt;div&gt;+ jogador_2(): Jogador&lt;/div&gt;+ jogador_2(Jogador)&lt;div&gt;+ party_1(): int&lt;/div&gt;&lt;div&gt;&lt;span style=&quot;background-color: initial;&quot;&gt;+ party_1(int&lt;/span&gt;&lt;span style=&quot;background-color: initial;&quot;&gt;)&lt;/span&gt;&lt;/div&gt;&lt;div&gt;+ party_2(): int&lt;/div&gt;&lt;div&gt;&lt;span style=&quot;background-color: initial;&quot;&gt;+ party_2(int&lt;/span&gt;&lt;span style=&quot;background-color: initial;&quot;&gt;)&lt;/span&gt;&lt;/div&gt;+ vencedor(): Jogador&lt;div&gt;+ vencedor(Jogador)&lt;/div&gt;&lt;div&gt;&lt;br&gt;&lt;div&gt;&lt;br&gt;&lt;/div&gt;&lt;/div&gt;&lt;div&gt;&lt;span style=&quot;background-color: initial;&quot;&gt;&lt;br&gt;&lt;/span&gt;&lt;/div&gt;&lt;div&gt;&lt;span style=&quot;background-color: initial;&quot;&gt;&lt;br&gt;&lt;/span&gt;&lt;/div&gt;" style="text;strokeColor=none;fillColor=none;align=left;verticalAlign=top;spacingLeft=4;spacingRight=4;overflow=hidden;rotatable=0;points=[[0,0.5],[1,0.5]];portConstraint=eastwest;whiteSpace=wrap;html=1;" vertex="1" parent="I01GNPKx7OFhs-Z_X_bF-13">
          <mxGeometry y="118" width="200" height="202" as="geometry" />
        </mxCell>
        <mxCell id="I01GNPKx7OFhs-Z_X_bF-17" value="Guerreiro" style="swimlane;fontStyle=1;align=center;verticalAlign=top;childLayout=stackLayout;horizontal=1;startSize=26;horizontalStack=0;resizeParent=1;resizeParentMax=0;resizeLast=0;collapsible=1;marginBottom=0;whiteSpace=wrap;html=1;" vertex="1" parent="1">
          <mxGeometry x="40" y="520" width="240" height="310" as="geometry" />
        </mxCell>
        <mxCell id="I01GNPKx7OFhs-Z_X_bF-18" value="- personagem: str&lt;div&gt;- classe: str&lt;br&gt;&lt;div&gt;- hp: float&lt;/div&gt;&lt;div&gt;- item: item&lt;/div&gt;&lt;/div&gt;&lt;div&gt;- dps: float&lt;/div&gt;" style="text;strokeColor=none;fillColor=none;align=left;verticalAlign=top;spacingLeft=4;spacingRight=4;overflow=hidden;rotatable=0;points=[[0,0.5],[1,0.5]];portConstraint=eastwest;whiteSpace=wrap;html=1;" vertex="1" parent="I01GNPKx7OFhs-Z_X_bF-17">
          <mxGeometry y="26" width="240" height="94" as="geometry" />
        </mxCell>
        <mxCell id="I01GNPKx7OFhs-Z_X_bF-19" value="" style="line;strokeWidth=1;fillColor=none;align=left;verticalAlign=middle;spacingTop=-1;spacingLeft=3;spacingRight=3;rotatable=0;labelPosition=right;points=[];portConstraint=eastwest;strokeColor=inherit;" vertex="1" parent="I01GNPKx7OFhs-Z_X_bF-17">
          <mxGeometry y="120" width="240" height="8" as="geometry" />
        </mxCell>
        <mxCell id="I01GNPKx7OFhs-Z_X_bF-20" value="&lt;div&gt;+ &amp;lt;&amp;lt;create&amp;gt;&amp;gt;&amp;nbsp; &amp;nbsp; &amp;nbsp; &amp;nbsp; &amp;nbsp; &amp;nbsp; &amp;nbsp; __init__(nome_personagem, hp, item, dps)&lt;/div&gt;+ personagem(): str&lt;div&gt;+ personagem(str)&lt;/div&gt;&lt;div&gt;+ classe(): str&lt;/div&gt;&lt;div&gt;+ hp(): float&lt;div&gt;+ hp(float)&lt;/div&gt;&lt;/div&gt;&lt;div&gt;+ item(): str&lt;div&gt;+ item(str)&lt;/div&gt;&lt;/div&gt;&lt;div&gt;+ dps(): float&lt;/div&gt;&lt;div&gt;+ dps(float)&lt;/div&gt;" style="text;strokeColor=none;fillColor=none;align=left;verticalAlign=top;spacingLeft=4;spacingRight=4;overflow=hidden;rotatable=0;points=[[0,0.5],[1,0.5]];portConstraint=eastwest;whiteSpace=wrap;html=1;" vertex="1" parent="I01GNPKx7OFhs-Z_X_bF-17">
          <mxGeometry y="128" width="240" height="182" as="geometry" />
        </mxCell>
        <mxCell id="I01GNPKx7OFhs-Z_X_bF-21" value="Mago" style="swimlane;fontStyle=1;align=center;verticalAlign=top;childLayout=stackLayout;horizontal=1;startSize=26;horizontalStack=0;resizeParent=1;resizeParentMax=0;resizeLast=0;collapsible=1;marginBottom=0;whiteSpace=wrap;html=1;" vertex="1" parent="1">
          <mxGeometry x="380" y="520" width="240" height="340" as="geometry" />
        </mxCell>
        <mxCell id="I01GNPKx7OFhs-Z_X_bF-22" value="- personagem: str&lt;div&gt;- classe: str&lt;br&gt;&lt;div&gt;- hp: float&lt;/div&gt;&lt;div&gt;- item: item&lt;/div&gt;&lt;/div&gt;&lt;div&gt;- dps: float&lt;/div&gt;&lt;div&gt;- mana: float&lt;/div&gt;" style="text;strokeColor=none;fillColor=none;align=left;verticalAlign=top;spacingLeft=4;spacingRight=4;overflow=hidden;rotatable=0;points=[[0,0.5],[1,0.5]];portConstraint=eastwest;whiteSpace=wrap;html=1;" vertex="1" parent="I01GNPKx7OFhs-Z_X_bF-21">
          <mxGeometry y="26" width="240" height="94" as="geometry" />
        </mxCell>
        <mxCell id="I01GNPKx7OFhs-Z_X_bF-23" value="" style="line;strokeWidth=1;fillColor=none;align=left;verticalAlign=middle;spacingTop=-1;spacingLeft=3;spacingRight=3;rotatable=0;labelPosition=right;points=[];portConstraint=eastwest;strokeColor=inherit;" vertex="1" parent="I01GNPKx7OFhs-Z_X_bF-21">
          <mxGeometry y="120" width="240" height="8" as="geometry" />
        </mxCell>
        <mxCell id="I01GNPKx7OFhs-Z_X_bF-24" value="&lt;div&gt;+ &amp;lt;&amp;lt;create&amp;gt;&amp;gt;&amp;nbsp; &amp;nbsp; &amp;nbsp; &amp;nbsp; &amp;nbsp; &amp;nbsp; &amp;nbsp; __init__(nome_personagem, hp, item, dps, mana)&lt;/div&gt;+ personagem(): str&lt;div&gt;+ personagem(str)&lt;/div&gt;&lt;div&gt;+ classe(): str&lt;/div&gt;&lt;div&gt;+ hp(): float&lt;div&gt;+ hp(float)&lt;/div&gt;&lt;/div&gt;&lt;div&gt;+ item(): str&lt;div&gt;+ item(str)&lt;/div&gt;&lt;/div&gt;&lt;div&gt;+ dps(): float&lt;/div&gt;&lt;div&gt;+ dps(float)&lt;/div&gt;&lt;div&gt;+ mana(): float&lt;/div&gt;&lt;div&gt;+ mana(float)&lt;/div&gt;" style="text;strokeColor=none;fillColor=none;align=left;verticalAlign=top;spacingLeft=4;spacingRight=4;overflow=hidden;rotatable=0;points=[[0,0.5],[1,0.5]];portConstraint=eastwest;whiteSpace=wrap;html=1;" vertex="1" parent="I01GNPKx7OFhs-Z_X_bF-21">
          <mxGeometry y="128" width="240" height="212" as="geometry" />
        </mxCell>
        <mxCell id="I01GNPKx7OFhs-Z_X_bF-25" value="Healer" style="swimlane;fontStyle=1;align=center;verticalAlign=top;childLayout=stackLayout;horizontal=1;startSize=26;horizontalStack=0;resizeParent=1;resizeParentMax=0;resizeLast=0;collapsible=1;marginBottom=0;whiteSpace=wrap;html=1;" vertex="1" parent="1">
          <mxGeometry x="740" y="520" width="240" height="380" as="geometry" />
        </mxCell>
        <mxCell id="I01GNPKx7OFhs-Z_X_bF-26" value="- personagem: str&lt;div&gt;- classe: str&lt;br&gt;&lt;div&gt;- hp: float&lt;/div&gt;&lt;div&gt;- item: item&lt;/div&gt;&lt;/div&gt;&lt;div&gt;- dps: float&lt;/div&gt;&lt;div&gt;- mana: float&lt;/div&gt;&lt;div&gt;- hps: float&lt;/div&gt;" style="text;strokeColor=none;fillColor=none;align=left;verticalAlign=top;spacingLeft=4;spacingRight=4;overflow=hidden;rotatable=0;points=[[0,0.5],[1,0.5]];portConstraint=eastwest;whiteSpace=wrap;html=1;" vertex="1" parent="I01GNPKx7OFhs-Z_X_bF-25">
          <mxGeometry y="26" width="240" height="104" as="geometry" />
        </mxCell>
        <mxCell id="I01GNPKx7OFhs-Z_X_bF-27" value="" style="line;strokeWidth=1;fillColor=none;align=left;verticalAlign=middle;spacingTop=-1;spacingLeft=3;spacingRight=3;rotatable=0;labelPosition=right;points=[];portConstraint=eastwest;strokeColor=inherit;" vertex="1" parent="I01GNPKx7OFhs-Z_X_bF-25">
          <mxGeometry y="130" width="240" height="8" as="geometry" />
        </mxCell>
        <mxCell id="I01GNPKx7OFhs-Z_X_bF-28" value="&lt;div&gt;+ &amp;lt;&amp;lt;create&amp;gt;&amp;gt;&amp;nbsp; &amp;nbsp; &amp;nbsp; &amp;nbsp; &amp;nbsp; &amp;nbsp; &amp;nbsp; __init__(nome_personagem, hp, item, dps, mana,hps)&lt;/div&gt;+ personagem(): str&lt;div&gt;+ personagem(str)&lt;/div&gt;&lt;div&gt;+ classe(): str&lt;/div&gt;&lt;div&gt;+ hp(): float&lt;div&gt;+ hp(float)&lt;/div&gt;&lt;/div&gt;&lt;div&gt;+ item(): str&lt;div&gt;+ item(str)&lt;/div&gt;&lt;/div&gt;&lt;div&gt;+ dps(): float&lt;/div&gt;&lt;div&gt;+ dps(float)&lt;/div&gt;&lt;div&gt;+ mana(): float&lt;/div&gt;&lt;div&gt;+ mana(float)&lt;/div&gt;&lt;div&gt;+ hps(float)&lt;/div&gt;&lt;div&gt;+ hps(): float&lt;/div&gt;" style="text;strokeColor=none;fillColor=none;align=left;verticalAlign=top;spacingLeft=4;spacingRight=4;overflow=hidden;rotatable=0;points=[[0,0.5],[1,0.5]];portConstraint=eastwest;whiteSpace=wrap;html=1;" vertex="1" parent="I01GNPKx7OFhs-Z_X_bF-25">
          <mxGeometry y="138" width="240" height="242" as="geometry" />
        </mxCell>
        <mxCell id="I01GNPKx7OFhs-Z_X_bF-29" value="Extends" style="endArrow=block;endSize=16;endFill=0;html=1;rounded=0;exitX=0.5;exitY=0;exitDx=0;exitDy=0;" edge="1" parent="1" source="I01GNPKx7OFhs-Z_X_bF-21">
          <mxGeometry x="0.0959" width="160" relative="1" as="geometry">
            <mxPoint x="510" y="520" as="sourcePoint" />
            <mxPoint x="500" y="447" as="targetPoint" />
            <mxPoint as="offset" />
          </mxGeometry>
        </mxCell>
        <mxCell id="I01GNPKx7OFhs-Z_X_bF-30" value="Extends" style="endArrow=block;endSize=16;endFill=0;html=1;rounded=0;exitX=0.5;exitY=0;exitDx=0;exitDy=0;entryX=1.003;entryY=0.698;entryDx=0;entryDy=0;entryPerimeter=0;" edge="1" parent="1" target="I01GNPKx7OFhs-Z_X_bF-4">
          <mxGeometry x="0.0959" width="160" relative="1" as="geometry">
            <mxPoint x="859.4100000000001" y="520" as="sourcePoint" />
            <mxPoint x="859.4100000000001" y="447" as="targetPoint" />
            <mxPoint as="offset" />
          </mxGeometry>
        </mxCell>
        <mxCell id="I01GNPKx7OFhs-Z_X_bF-31" value="Extends" style="endArrow=block;endSize=16;endFill=0;html=1;rounded=0;exitX=0.5;exitY=0;exitDx=0;exitDy=0;" edge="1" parent="1">
          <mxGeometry x="0.0959" width="160" relative="1" as="geometry">
            <mxPoint x="159.41000000000003" y="520" as="sourcePoint" />
            <mxPoint x="380" y="420" as="targetPoint" />
            <mxPoint as="offset" />
          </mxGeometry>
        </mxCell>
        <mxCell id="I01GNPKx7OFhs-Z_X_bF-32" value="" style="endArrow=diamondThin;endFill=1;endSize=24;html=1;rounded=0;" edge="1" parent="1" source="I01GNPKx7OFhs-Z_X_bF-11">
          <mxGeometry width="160" relative="1" as="geometry">
            <mxPoint x="1080" y="281" as="sourcePoint" />
            <mxPoint x="1290" y="280" as="targetPoint" />
          </mxGeometry>
        </mxCell>
        <mxCell id="I01GNPKx7OFhs-Z_X_bF-33" value="" style="endArrow=open;endFill=1;endSize=12;html=1;rounded=0;exitX=1.001;exitY=-0.023;exitDx=0;exitDy=0;exitPerimeter=0;" edge="1" parent="1" source="I01GNPKx7OFhs-Z_X_bF-4">
          <mxGeometry width="160" relative="1" as="geometry">
            <mxPoint x="620" y="310" as="sourcePoint" />
            <mxPoint x="860" y="315" as="targetPoint" />
          </mxGeometry>
        </mxCell>
        <mxCell id="I01GNPKx7OFhs-Z_X_bF-34" value="" style="endArrow=open;endFill=1;endSize=12;html=1;rounded=0;exitX=0.447;exitY=0;exitDx=0;exitDy=0;exitPerimeter=0;entryX=-0.005;entryY=0.67;entryDx=0;entryDy=0;entryPerimeter=0;" edge="1" parent="1" source="I01GNPKx7OFhs-Z_X_bF-5" target="I01GNPKx7OFhs-Z_X_bF-16">
          <mxGeometry width="160" relative="1" as="geometry">
            <mxPoint x="1360" y="140" as="sourcePoint" />
            <mxPoint x="1600" y="140" as="targetPoint" />
          </mxGeometry>
        </mxCell>
        <mxCell id="I01GNPKx7OFhs-Z_X_bF-35" style="edgeStyle=none;curved=1;rounded=0;orthogonalLoop=1;jettySize=auto;html=1;exitX=0.5;exitY=0;exitDx=0;exitDy=0;fontSize=12;startSize=8;endSize=8;entryX=0.521;entryY=1.012;entryDx=0;entryDy=0;entryPerimeter=0;" edge="1" parent="1" source="I01GNPKx7OFhs-Z_X_bF-36" target="I01GNPKx7OFhs-Z_X_bF-8">
          <mxGeometry relative="1" as="geometry">
            <mxPoint x="1370" y="460" as="targetPoint" />
          </mxGeometry>
        </mxCell>
        <mxCell id="I01GNPKx7OFhs-Z_X_bF-36" value="ControladorJogador" style="swimlane;fontStyle=1;align=center;verticalAlign=top;childLayout=stackLayout;horizontal=1;startSize=26;horizontalStack=0;resizeParent=1;resizeParentMax=0;resizeLast=0;collapsible=1;marginBottom=0;whiteSpace=wrap;html=1;" vertex="1" parent="1">
          <mxGeometry x="1290" y="600" width="160" height="120" as="geometry" />
        </mxCell>
        <mxCell id="I01GNPKx7OFhs-Z_X_bF-37" value="" style="line;strokeWidth=1;fillColor=none;align=left;verticalAlign=middle;spacingTop=-1;spacingLeft=3;spacingRight=3;rotatable=0;labelPosition=right;points=[];portConstraint=eastwest;strokeColor=inherit;" vertex="1" parent="I01GNPKx7OFhs-Z_X_bF-36">
          <mxGeometry y="26" width="160" height="8" as="geometry" />
        </mxCell>
        <mxCell id="I01GNPKx7OFhs-Z_X_bF-38" value="&lt;div&gt;+ &amp;lt;&amp;lt;create&amp;gt;&amp;gt; __init__()&lt;br&gt;&lt;/div&gt;&lt;div&gt;+ add_party(Party)&lt;div&gt;+ remove_party(Party)&lt;/div&gt;&lt;div&gt;+ add_batalha(Batalha)&lt;div&gt;+ remove_batalha(Batalha)&lt;/div&gt;&lt;/div&gt;&lt;/div&gt;" style="text;strokeColor=none;fillColor=none;align=left;verticalAlign=top;spacingLeft=4;spacingRight=4;overflow=hidden;rotatable=0;points=[[0,0.5],[1,0.5]];portConstraint=eastwest;whiteSpace=wrap;html=1;" vertex="1" parent="I01GNPKx7OFhs-Z_X_bF-36">
          <mxGeometry y="34" width="160" height="86" as="geometry" />
        </mxCell>
        <mxCell id="I01GNPKx7OFhs-Z_X_bF-39" value="TelaJogador" style="swimlane;fontStyle=1;align=center;verticalAlign=top;childLayout=stackLayout;horizontal=1;startSize=26;horizontalStack=0;resizeParent=1;resizeParentMax=0;resizeLast=0;collapsible=1;marginBottom=0;whiteSpace=wrap;html=1;" vertex="1" parent="1">
          <mxGeometry x="1700" y="540" width="160" height="210" as="geometry" />
        </mxCell>
        <mxCell id="I01GNPKx7OFhs-Z_X_bF-40" value="- campos_de_tela" style="text;strokeColor=none;fillColor=none;align=left;verticalAlign=top;spacingLeft=4;spacingRight=4;overflow=hidden;rotatable=0;points=[[0,0.5],[1,0.5]];portConstraint=eastwest;whiteSpace=wrap;html=1;" vertex="1" parent="I01GNPKx7OFhs-Z_X_bF-39">
          <mxGeometry y="26" width="160" height="34" as="geometry" />
        </mxCell>
        <mxCell id="I01GNPKx7OFhs-Z_X_bF-41" value="" style="line;strokeWidth=1;fillColor=none;align=left;verticalAlign=middle;spacingTop=-1;spacingLeft=3;spacingRight=3;rotatable=0;labelPosition=right;points=[];portConstraint=eastwest;strokeColor=inherit;" vertex="1" parent="I01GNPKx7OFhs-Z_X_bF-39">
          <mxGeometry y="60" width="160" height="8" as="geometry" />
        </mxCell>
        <mxCell id="I01GNPKx7OFhs-Z_X_bF-42" value="&lt;div&gt;+ &amp;lt;&amp;lt;create&amp;gt;&amp;gt;&lt;/div&gt;&lt;div&gt;&lt;span style=&quot;background-color: initial;&quot;&gt;__init__(nome)&lt;/span&gt;&lt;/div&gt;&lt;div&gt;+cadastra_jogador(&lt;span style=&quot;background-color: initial;&quot;&gt;nome&lt;/span&gt;)&lt;/div&gt;&lt;div&gt;&lt;div&gt;+cadastra_batalha()&lt;/div&gt;&lt;div&gt;+cadastra_party()&lt;/div&gt;&lt;/div&gt;&lt;div&gt;&lt;br&gt;&lt;/div&gt;" style="text;strokeColor=none;fillColor=none;align=left;verticalAlign=top;spacingLeft=4;spacingRight=4;overflow=hidden;rotatable=0;points=[[0,0.5],[1,0.5]];portConstraint=eastwest;whiteSpace=wrap;html=1;" vertex="1" parent="I01GNPKx7OFhs-Z_X_bF-39">
          <mxGeometry y="68" width="160" height="142" as="geometry" />
        </mxCell>
        <mxCell id="I01GNPKx7OFhs-Z_X_bF-43" style="edgeStyle=none;curved=1;rounded=0;orthogonalLoop=1;jettySize=auto;html=1;exitX=1;exitY=0.5;exitDx=0;exitDy=0;entryX=0;entryY=0.5;entryDx=0;entryDy=0;fontSize=12;startSize=8;endSize=8;" edge="1" parent="1" source="I01GNPKx7OFhs-Z_X_bF-38" target="I01GNPKx7OFhs-Z_X_bF-42">
          <mxGeometry relative="1" as="geometry" />
        </mxCell>
        <mxCell id="I01GNPKx7OFhs-Z_X_bF-44" style="edgeStyle=none;curved=1;rounded=0;orthogonalLoop=1;jettySize=auto;html=1;exitX=0;exitY=0.5;exitDx=0;exitDy=0;entryX=1;entryY=0.5;entryDx=0;entryDy=0;fontSize=12;startSize=8;endSize=8;" edge="1" parent="1" source="I01GNPKx7OFhs-Z_X_bF-38" target="I01GNPKx7OFhs-Z_X_bF-12">
          <mxGeometry relative="1" as="geometry" />
        </mxCell>
        <mxCell id="I01GNPKx7OFhs-Z_X_bF-45" value="" style="endArrow=classic;html=1;rounded=0;fontSize=12;startSize=8;endSize=8;curved=1;exitX=1;exitY=0.25;exitDx=0;exitDy=0;entryX=0.502;entryY=1.024;entryDx=0;entryDy=0;entryPerimeter=0;" edge="1" parent="1" source="I01GNPKx7OFhs-Z_X_bF-36" target="I01GNPKx7OFhs-Z_X_bF-16">
          <mxGeometry width="50" height="50" relative="1" as="geometry">
            <mxPoint x="1370" y="540" as="sourcePoint" />
            <mxPoint x="1680" y="180" as="targetPoint" />
          </mxGeometry>
        </mxCell>
      </root>
    </mxGraphModel>
  </diagram>
</mxfile>
